<svg id="Capa_1" enable-background="new 0 0 512 512" viewBox="0 0 512 512" xmlns="http://www.w3.org/2000/svg"><g><path d="m496.998 34.362h-52.463c.262-6.429.4-12.885.4-19.362 0-8.284-6.716-15-15-15h-347.869c-8.284 0-15 6.716-15 15 0 6.477.137 12.934.4 19.362h-52.464c-8.284 0-15 6.716-15 15v32.241c0 88.357 63.842 162.078 147.819 177.472 7.193 7.86 14.75 14.947 22.63 21.186 25.885 20.495 40.731 50.709 40.731 82.894v58.845h-57.002c-8.284 0-15 6.716-15 15v45h-15c-8.284 0-15 6.716-15 15s6.716 15 15 15h263.643c8.284 0 15-6.716 15-15s-6.716-15-15-15h-15v-45c0-8.284-6.716-15-15-15h-57.003v-58.845c0-32.186 14.846-62.399 40.731-82.895 7.879-6.239 15.436-13.326 22.629-21.185 83.977-15.394 147.819-89.115 147.819-177.472v-32.241c-.001-8.284-6.716-15-15.001-15zm-466.996 47.241v-17.241h39.653c4.019 38.077 12.671 74.578 25.607 107.475 6.59 16.759 14.192 32.344 22.664 46.582-51.833-23.776-87.924-76.158-87.924-136.816zm451.996 0c0 60.659-36.091 113.041-87.924 136.817 8.473-14.238 16.075-29.823 22.665-46.582 12.935-32.897 21.587-69.398 25.606-107.475h39.652v17.24z"/></g><g/><g/><g/><g/><g/><g/><g/><g/><g/><g/><g/><g/><g/><g/><g/></svg>